# xmcd
#
# Track frame offsets:
#	150
#	16415
#	32593
#	48331
#	64960
#	82713
#
# Disc length: 1277 seconds
#
# Revision: 1
# Processed by: cddbd v1.5.2PL0 Copyright (c) Steve Scherf et al.
# Submitted via: audiograbber 1.83.01
#
DISCID=3e04fb06
DTITLE=Declan McGarry - Crazy Young Love
DYEAR=2013
DGENRE=Country
TTITLE0=Crazy Young Love
TTITLE1=Rise Baby Rise
TTITLE2=I Want to Live in a Country Song
TTITLE3=Photo Album
TTITLE4=Black Gold
TTITLE5=Roses and Diamonds
EXTD=
EXTT0=
EXTT1=
EXTT2=
EXTT3=
EXTT4=
EXTT5=
PLAYORDER=
